<svg width="142" height="42" viewBox="0 0 142 42" fill="none" xmlns="http://www.w3.org/2000/svg"><path d="M15.588 41h-5.104V9.274c0-1.3533.0967-2.5133.29-3.48L.972 8.868l-.696-3.77L10.484.98h5.104V41zM28.8954 5.04C30.9447 1.8307 34.502.226 39.5674.226c5.0653 0 8.6226 1.6047 10.672 4.814 2.088 3.2093 3.132 8.526 3.132 15.95 0 7.424-1.044 12.7407-3.132 15.95-2.0494 3.2093-5.6067 4.814-10.672 4.814-5.0654 0-8.6227-1.6047-10.672-4.814-2.0494-3.2093-3.074-8.526-3.074-15.95 0-7.424 1.0246-12.7407 3.074-15.95zm17.516 3.306c-1.276-2.436-3.5574-3.654-6.844-3.654-3.2867 0-5.568 1.218-6.844 3.654-1.276 2.436-1.914 6.6507-1.914 12.644 0 5.9933.638 10.208 1.914 12.644 1.276 2.436 3.5573 3.654 6.844 3.654 3.2866 0 5.568-1.218 6.844-3.654 1.3146-2.436 1.972-6.6507 1.972-12.644 0-5.9933-.6574-10.208-1.972-12.644zM63.8426 5.04C65.892 1.8307 69.4493.226 74.5146.226c5.0654 0 8.6227 1.6047 10.672 4.814 2.088 3.2093 3.132 8.526 3.132 15.95 0 7.424-1.044 12.7407-3.132 15.95-2.0493 3.2093-5.6066 4.814-10.672 4.814-5.0653 0-8.6226-1.6047-10.672-4.814-2.0493-3.2093-3.074-8.526-3.074-15.95 0-7.424 1.0247-12.7407 3.074-15.95zm17.516 3.306c-1.276-2.436-3.5573-3.654-6.844-3.654-3.2866 0-5.568 1.218-6.844 3.654-1.276 2.436-1.914 6.6507-1.914 12.644 0 5.9933.638 10.208 1.914 12.644 1.276 2.436 3.5574 3.654 6.844 3.654 3.2867 0 5.568-1.218 6.844-3.654 1.3147-2.436 1.972-6.6507 1.972-12.644 0-5.9933-.6573-10.208-1.972-12.644zM104.01.226c3.441 0 5.858.9087 7.25 2.726 1.392 1.8173 2.088 4.872 2.088 9.164s-.696 7.3467-2.088 9.164c-1.392 1.8173-3.809 2.726-7.25 2.726-3.403 0-5.8001-.9087-7.1921-2.726-1.392-1.8173-2.088-4.872-2.088-9.164s.696-7.3467 2.088-9.164C98.2099 1.1347 100.607.226 104.01.226zM106.62 41h-3.48L129.066.98h3.48L106.62 41zm1.682-35.67c-.773-1.3147-2.204-1.972-4.292-1.972-2.088 0-3.538.6573-4.3501 1.972-.7733 1.276-1.16 3.538-1.16 6.786 0 3.248.3867 5.5293 1.16 6.844.8121 1.276 2.2621 1.914 4.3501 1.914s3.519-.638 4.292-1.914c.812-1.276 1.218-3.5573 1.218-6.844 0-3.248-.406-5.51-1.218-6.786zM124.6 20.526c1.392-1.8173 3.789-2.726 7.192-2.726s5.8.9087 7.192 2.726c1.392 1.8173 2.088 4.8527 2.088 9.106 0 4.292-.696 7.3467-2.088 9.164-1.392 1.8173-3.789 2.726-7.192 2.726s-5.8-.9087-7.192-2.726c-1.392-1.8173-2.088-4.872-2.088-9.164 0-4.2533.696-7.2887 2.088-9.106zm11.484 2.32c-.812-1.276-2.262-1.914-4.35-1.914-2.088 0-3.538.638-4.35 1.914-.773 1.2373-1.141 3.4993-1.102 6.786-.039 3.2867.329 5.5873 1.102 6.902.812 1.276 2.262 1.914 4.35 1.914 2.088 0 3.538-.638 4.35-1.914.812-1.3147 1.218-3.6153 1.218-6.902 0-3.248-.406-5.51-1.218-6.786z" fill="url(#paint0_linear)"/><defs><linearGradient id="paint0_linear" x1="-32.0102" y1="14.5285" x2="112.99" y2="14.5285" gradientUnits="userSpaceOnUse"><stop stop-color="#00A2C4"/><stop offset=".75" stop-color="#7DC243"/><stop offset="1" stop-color="#B3D347"/></linearGradient></defs></svg>