<svg width="70" height="70" viewBox="0 0 70 70" fill="none" xmlns="http://www.w3.org/2000/svg"><path d="M66.6129 22.5806h-1.129V9.0323H11.2903V0H5.6452C2.5326 0 0 2.5326 0 5.6452v42.9032c0 3.1125 2.5326 5.6452 5.6452 5.6452H36.129v12.4193c0 1.8672 1.5199 3.3871 3.3871 3.3871h27.0968C68.4801 70 70 68.4801 70 66.6129V25.9677c0-1.8672-1.5199-3.3871-3.3871-3.3871zM2.2581 5.6452c0-1.8672 1.5199-3.3871 3.387-3.3871h3.3872v40.6451H5.6452c-1.2702 0-2.4433.4223-3.3871 1.1313V5.6452zm3.387 46.2903c-1.8671 0-3.387-1.5199-3.387-3.3871 0-1.8672 1.5199-3.3871 3.387-3.3871h5.6452v-33.871h51.9355v11.2903H39.8662c-1.8959-5.3595-7.0179-9.0322-12.7694-9.0322-7.471 0-13.5484 6.0774-13.5484 13.5484 0 7.471 6.0774 13.5484 13.5484 13.5484 3.3645 0 6.5707-1.2636 9.0322-3.4649v14.7552H5.6452zM36.129 25.9677h-7.9032V15.8698c4.2554.4301 7.9429 3.2559 9.4457 7.2643-.9272.6048-1.5425 1.6473-1.5425 2.8336zM25.9677 38.3298c-5.6969-.5684-10.1612-5.3894-10.1612-11.233s4.4643-10.6646 10.1612-11.233v22.466zm2.2581-10.104h7.9032v5.6204c-1.9014 2.5392-4.7735 4.1561-7.9032 4.472V28.2258zm39.5161 38.3871c0 .6219-.5071 1.129-1.129 1.129H39.5161c-.6218 0-1.129-.5071-1.129-1.129V25.9677c0-.6218.5072-1.129 1.129-1.129h27.0968c.6219 0 1.129.5072 1.129 1.129v40.6452z" fill="#fff"/><path d="M40.6451 38.387h24.8387V27.0967H40.6451V38.387zm2.2581-9.0323h20.3226v6.7742H42.9032v-6.7742zM58.7097 65.4839h6.7742v-6.7742h-6.7742v6.7742zm2.258-4.5161h2.2581v2.258h-2.2581v-2.258zM49.6774 65.4839h6.7742v-6.7742h-6.7742v6.7742zm2.2581-4.5161h2.2581v2.258h-2.2581v-2.258zM40.6451 65.4839h6.7742v-6.7742h-6.7742v6.7742zm2.2581-4.5161h2.2581v2.258h-2.2581v-2.258zM58.7097 56.4517h6.7742v-6.7742h-6.7742v6.7742zm2.258-4.5161h2.2581v2.258h-2.2581v-2.258zM49.6774 56.4517h6.7742v-6.7742h-6.7742v6.7742zm2.2581-4.5161h2.2581v2.258h-2.2581v-2.258zM40.6451 56.4517h6.7742v-6.7742h-6.7742v6.7742zm2.2581-4.5161h2.2581v2.258h-2.2581v-2.258zM58.7097 47.4192h6.7742V40.645h-6.7742v6.7742zm2.258-4.5161h2.2581v2.258h-2.2581v-2.258zM49.6774 47.4192h6.7742V40.645h-6.7742v6.7742zm2.2581-4.5161h2.2581v2.258h-2.2581v-2.258zM40.6451 47.4192h6.7742V40.645h-6.7742v6.7742zm2.2581-4.5161h2.2581v2.258h-2.2581v-2.258zM45.1613 13.5483h15.8064v2.2581H45.1613v-2.2581zM42.9032 18.0645h18.0645v2.258H42.9032v-2.258z" fill="#fff"/></svg>