<svg width="84" height="48" viewBox="0 0 84 48" fill="none" xmlns="http://www.w3.org/2000/svg"><path d="M61.25 21.25h-5.5V24h5.5v-2.75z" fill="url(#paint0_linear)"/><path d="M15.875 37.75h-2.75v2.75h2.75v-2.75z" fill="url(#paint1_linear)"/><path d="M66.75 37.75H64v2.75h2.75v-2.75z" fill="url(#paint2_linear)"/><path d="M82.3013 15.1642l-6.6867-12.375a4.1243 4.1243 0 0 0-3.63-2.1642H51.625A1.375 1.375 0 0 0 50.25 2v23.375H2.125A1.3752 1.3752 0 0 0 .75 26.75v11A2.75 2.75 0 0 0 3.5 40.5h2.8738a8.2405 8.2405 0 0 0 13.4479 4.9248A8.2402 8.2402 0 0 0 22.6262 40.5h34.6225a8.2408 8.2408 0 0 0 8.1263 6.8737A8.2403 8.2403 0 0 0 73.5013 40.5h5.6237a4.125 4.125 0 0 0 4.125-4.125V18.6485a6.8194 6.8194 0 0 0-.9487-3.4843zM73.1946 4.0969L79.4921 15.75H58.5V3.375h13.4846a1.375 1.375 0 0 1 1.21.7219zM14.5 44.625a5.5 5.5 0 1 1 0-11.0001 5.5 5.5 0 0 1 0 11.0001zm0-13.75a8.2581 8.2581 0 0 0-8.1262 6.875H3.5v-9.625h46.75v9.625H22.6262A8.258 8.258 0 0 0 14.5 30.875zm50.875 13.75a5.5 5.5 0 1 1 0-11.0001 5.5 5.5 0 0 1 0 11.0001zm13.75-6.875h-5.6237a8.2405 8.2405 0 0 0-16.2526 0H53V3.375h2.75v13.75a1.3753 1.3753 0 0 0 1.375 1.375h23.3544c0 .0495.0206.0976.0206.1485V21.25H75a2.7497 2.7497 0 0 0-1.9445.8055A2.7497 2.7497 0 0 0 72.25 24v2.75c0 .7293.2897 1.4288.8055 1.9445A2.7497 2.7497 0 0 0 75 29.5h5.5v2.75h-4.125V35H80.5v1.375a1.3753 1.3753 0 0 1-1.375 1.375zM80.5 24v2.75H75V24h5.5z" fill="url(#paint3_linear)"/><path d="M12.872 22.625h17.006a4.1001 4.1001 0 0 0 7.744 0h3.003A1.3749 1.3749 0 0 0 42 21.25v-5.5a1.375 1.375 0 0 0-.4001-.9707l-2.7376-2.75a1.3757 1.3757 0 0 0-.9749-.4043h-2.2536l-9.2387-7.9186A1.3748 1.3748 0 0 0 25.5 3.375H13.4495a4.1017 4.1017 0 0 0-3.6891 2.2798L6.7752 11.625H3.5a2.7501 2.7501 0 0 0-2.75 2.75v6.875a1.375 1.375 0 0 0 1.375 1.375h3.003a4.1002 4.1002 0 0 0 7.744 0zm20.878 0a1.375 1.375 0 1 1-.0001-2.7498 1.375 1.375 0 0 1 .0001 2.7498zm-2.3375-11H21.375v-5.5h3.6162l6.4213 5.5zM12.2203 6.8854a1.3667 1.3667 0 0 1 1.2292-.7604h5.1755v5.5H9.8498l2.3705-4.7396zM3.5 14.375h33.8167l1.9333 1.9429v3.5571h-1.628a4.1003 4.1003 0 0 0-7.744 0H12.872a4.1003 4.1003 0 0 0-7.744 0H3.5v-5.5zm5.5 8.25a1.3749 1.3749 0 0 1-.9723-2.3472 1.3752 1.3752 0 0 1 2.3473.9722A1.3752 1.3752 0 0 1 9 22.625z" fill="url(#paint4_linear)"/><defs><linearGradient id="paint0_linear" x1="54.5738" y1="22.5241" x2="60.0738" y2="22.5241" gradientUnits="userSpaceOnUse"><stop stop-color="#00A2C4"/><stop offset=".75" stop-color="#7DC243"/><stop offset="1" stop-color="#B3D347"/></linearGradient><linearGradient id="paint1_linear" x1="12.5369" y1="39.0241" x2="15.2869" y2="39.0241" gradientUnits="userSpaceOnUse"><stop stop-color="#00A2C4"/><stop offset=".75" stop-color="#7DC243"/><stop offset="1" stop-color="#B3D347"/></linearGradient><linearGradient id="paint2_linear" x1="63.4119" y1="39.0241" x2="66.1619" y2="39.0241" gradientUnits="userSpaceOnUse"><stop stop-color="#00A2C4"/><stop offset=".75" stop-color="#7DC243"/><stop offset="1" stop-color="#B3D347"/></linearGradient><linearGradient id="paint3_linear" x1="-16.8937" y1="22.2843" x2="65.6063" y2="22.2843" gradientUnits="userSpaceOnUse"><stop stop-color="#00A2C4"/><stop offset=".75" stop-color="#7DC243"/><stop offset="1" stop-color="#B3D347"/></linearGradient><linearGradient id="paint4_linear" x1="-8.0719" y1="13.5685" x2="33.1781" y2="13.5685" gradientUnits="userSpaceOnUse"><stop stop-color="#00A2C4"/><stop offset=".75" stop-color="#7DC243"/><stop offset="1" stop-color="#B3D347"/></linearGradient></defs></svg>