<svg width="55" height="55" viewBox="0 0 55 55" fill="none" xmlns="http://www.w3.org/2000/svg"><g clip-path="url(#clip0)"><path d="M54.0833 49.5h-2.75V32.0834a.9166.9166 0 0 0-1.6674-.5253L36.8326 49.8914a.9165.9165 0 0 0 .7507 1.442H49.5v2.75a.9167.9167 0 0 0 1.8333 0v-2.75h2.75a.9167.9167 0 0 0 0-1.8334zm-4.5833 0H39.3433L49.5 34.991V49.5z" fill="url(#paint0_linear)"/><path d="M37.5833 53.1666H26.7309l10.0898-11.8809a.998.998 0 0 0 .0641-.0852c1.8982-2.8094 1.266-6.613-1.4391-8.657-3.2891-2.3633-7.8713-1.6127-10.2345 1.6764A7.3332 7.3332 0 0 0 23.8333 38.5c0 .5062.4105.9166.9167.9166s.9167-.4104.9167-.9166c-.0004-3.0376 2.4619-5.5003 5.4994-5.5006a5.4998 5.4998 0 0 1 3.2089 1.0327c1.8949 1.4519 2.3361 4.1258 1.0083 6.1096L24.0515 53.4902A.9165.9165 0 0 0 24.75 55h12.8333a.9167.9167 0 0 0 0-1.8334z" fill="url(#paint1_linear)"/><path d="M24.7702 48.6007c.0191-.5058-.3756-.9314-.8815-.9505.0001 0-.0001 0 0 0-11.9591-.4439-21.558-10.0253-22.0233-21.9835H5.5a.9168.9168 0 0 0 0-1.8334H1.8654C2.3241 11.8962 11.896 2.3245 23.8333 1.8663v2.717a.9168.9168 0 0 0 1.8334 0v-2.717c11.7739.4554 21.2765 9.7786 21.956 21.5417l-3.575-3.575a.9167.9167 0 1 0-1.2962 1.2962l5.1168 5.1168a.9024.9024 0 0 0 .3612.2631 1.051 1.051 0 0 0 .1091.0266.9024.9024 0 0 0 .1943.0467h.0523a.8877.8877 0 0 0 .2053-.0403.8638.8638 0 0 0 .1118-.0211.9018.9018 0 0 0 .3309-.2072l5.1866-5.1846a.9167.9167 0 1 0-1.2962-1.2962l-3.6639 3.6612C48.8048 10.3549 37.9706.0322 24.8151.0128 24.7922.012 24.7729 0 24.75 0c-.0229 0-.0422.012-.0651.0128C11.0667.0315.0315 11.0667.0129 24.685c0 .0229-.0129.0422-.0129.0651 0 .0229.012.0422.0128.0651.0228 13.2821 10.5347 24.1736 23.8077 24.6675h.0339a.9167.9167 0 0 0 .9158-.8819z" fill="url(#paint2_linear)"/><path d="M37.0654 12.4346a.9167.9167 0 0 0-1.2961 0l-9.8506 9.8496a2.8703 2.8703 0 0 0-2.3384 0l-4.664-4.664a.9165.9165 0 0 0-1.2961.0226.9165.9165 0 0 0 0 1.2735l4.6548 4.6549c-.6536 1.3681-.0743 3.0071 1.294 3.6606a2.7456 2.7456 0 0 0 3.1252-.5366 2.72 2.72 0 0 0 .5299-3.1231l9.8413-9.8413a.9166.9166 0 0 0 0-1.2962zM25.3983 25.3979c.0001-.0001-.0001.0001 0 0a.9381.9381 0 0 1-1.2964.0002.9167.9167 0 0 1-.0002-1.2964c.3579-.3581.9383-.3581 1.2964-.0002s.3581.9384.0002 1.2964z" fill="url(#paint3_linear)"/><path d="M23.8887 47.6502c.5059.0191.9006.4447.8815.9505a.9167.9167 0 0 1-.9158.8819h-.0339C10.5475 48.9887.0356 38.0972.0128 24.8151.012 24.7922 0 24.7729 0 24.75c0-.0229.0128-.0422.0128-.0651C.0315 11.0667 11.0667.0315 24.685.0129 24.7078.0118 24.7271 0 24.75 0c.0229 0 .0422.012.0651.0128C37.9706.0322 48.8048 10.355 49.4597 23.4942l3.6639-3.6612a.9167.9167 0 0 1 1.2962 1.2962l-5.1866 5.1846a.9018.9018 0 0 1-.3309.2072.8638.8638 0 0 1-.1118.0211.8877.8877 0 0 1-.2053.0403h-.0523a.9024.9024 0 0 1-.1943-.0467 1.051 1.051 0 0 1-.1091-.0266.9024.9024 0 0 1-.3612-.2631l-5.1168-5.1168a.9167.9167 0 0 1 1.2962-1.2962l3.575 3.575c-.6795-11.7631-10.1821-21.0863-21.956-21.5417v2.717a.9168.9168 0 0 1-1.8334 0v-2.717C11.896 2.3245 2.3241 11.8962 1.8654 23.8333H5.5a.9168.9168 0 0 1 0 1.8334H1.8654c.4653 11.9582 10.0642 21.5396 22.0233 21.9835zm0 0c-.0001 0 .0001 0 0 0zm1.5096-22.2523c-.0001.0001.0001-.0001 0 0zm0 0a.9381.9381 0 0 1-1.2964.0002.9167.9167 0 0 1-.0002-1.2964c.3579-.3581.9383-.3581 1.2964-.0002s.3581.9384.0002 1.2964zM54.0833 49.5h-2.75V32.0834a.9166.9166 0 0 0-1.6674-.5253L36.8326 49.8914c-.2901.415-.189.9865.2259 1.2765a.9166.9166 0 0 0 .5248.1655H49.5v2.75a.9167.9167 0 0 0 1.8333 0v-2.75h2.75a.9167.9167 0 0 0 0-1.8334zm-4.5833 0H39.3433L49.5 34.991V49.5zm-11.9167 3.6666H26.7309l10.0898-11.8809a.998.998 0 0 0 .0641-.0852c1.8982-2.8094 1.266-6.613-1.4391-8.657-3.2891-2.3633-7.8713-1.6127-10.2345 1.6764A7.3332 7.3332 0 0 0 23.8333 38.5c0 .5062.4105.9166.9167.9166s.9167-.4104.9167-.9166c-.0004-3.0376 2.4619-5.5003 5.4994-5.5006a5.4998 5.4998 0 0 1 3.2089 1.0327c1.8949 1.4519 2.3361 4.1258 1.0083 6.1096L24.0515 53.4902A.9165.9165 0 0 0 24.75 55h12.8333a.9167.9167 0 0 0 0-1.8334zm-.5179-40.732a.9167.9167 0 0 0-1.2961 0l-9.8506 9.8496a2.8703 2.8703 0 0 0-2.3384 0l-4.664-4.664a.9165.9165 0 0 0-1.2961.0226.9165.9165 0 0 0 0 1.2735l4.6548 4.6549c-.6536 1.3681-.0743 3.0071 1.294 3.6606a2.7456 2.7456 0 0 0 3.1252-.5366 2.72 2.72 0 0 0 .5299-3.1231l9.8413-9.8413a.9166.9166 0 0 0 0-1.2962z" stroke="url(#paint4_linear)"/></g><defs><linearGradient id="paint0_linear" x1="-11.7625" y1="25.4823" x2="43.2375" y2="25.4823" gradientUnits="userSpaceOnUse"><stop stop-color="#00A2C4"/><stop offset=".75" stop-color="#7DC243"/><stop offset="1" stop-color="#B3D347"/></linearGradient><linearGradient id="paint1_linear" x1="-11.7625" y1="25.4823" x2="43.2375" y2="25.4823" gradientUnits="userSpaceOnUse"><stop stop-color="#00A2C4"/><stop offset=".75" stop-color="#7DC243"/><stop offset="1" stop-color="#B3D347"/></linearGradient><linearGradient id="paint2_linear" x1="-11.7625" y1="25.4823" x2="43.2375" y2="25.4823" gradientUnits="userSpaceOnUse"><stop stop-color="#00A2C4"/><stop offset=".75" stop-color="#7DC243"/><stop offset="1" stop-color="#B3D347"/></linearGradient><linearGradient id="paint3_linear" x1="-11.7625" y1="25.4823" x2="43.2375" y2="25.4823" gradientUnits="userSpaceOnUse"><stop stop-color="#00A2C4"/><stop offset=".75" stop-color="#7DC243"/><stop offset="1" stop-color="#B3D347"/></linearGradient><linearGradient id="paint4_linear" x1="-11.7625" y1="25.4823" x2="43.2375" y2="25.4823" gradientUnits="userSpaceOnUse"><stop stop-color="#00A2C4"/><stop offset=".75" stop-color="#7DC243"/><stop offset="1" stop-color="#B3D347"/></linearGradient><clipPath id="clip0"><path fill="#fff" d="M0 0h55v55H0z"/></clipPath></defs></svg>