<svg width="58" height="58" viewBox="0 0 58 58" fill="none" xmlns="http://www.w3.org/2000/svg"><path fill-rule="evenodd" clip-rule="evenodd" d="M55.25 15.875h.9375a.9376.9376 0 0 1 .9375.9375v39.375a.9376.9376 0 0 1-.9375.9375H1.8125a.9376.9376 0 0 1-.9375-.9375v-39.375a.9375.9375 0 0 1 .9375-.9375H2.75v-2.8125a.9375.9375 0 0 1 .9375-.9375H14V1.8125a.9376.9376 0 0 1 .9375-.9375h28.125A.9375.9375 0 0 1 44 1.8125V12.125h10.3125a.9376.9376 0 0 1 .9375.9375v2.8125zM2.75 55.25H14v-37.5H2.75v37.5zm1.875-39.375H14V14H4.625v1.875zm15.9375 33.75v5.625h7.5v-5.625h-7.5zm9.375 0v5.625h7.5v-5.625h-7.5zM42.125 55.25V2.75h-26.25v52.5h2.8125v-6.5625a.9376.9376 0 0 1 .9375-.9375h18.75a.9376.9376 0 0 1 .9375.9375V55.25h2.8125zM53.375 14H44v1.875h9.375V14zM44 55.25h11.25v-37.5H44v37.5zM28.6194 23.2944l-1.7569-.78A12.2 12.2 0 0 1 19.625 11.375v-3a.9376.9376 0 0 1 .9375-.9375 13.2133 13.2133 0 0 0 7.875-2.625.9376.9376 0 0 1 1.125 0 13.2131 13.2131 0 0 0 7.875 2.625.9375.9375 0 0 1 .9375.9375v3a12.1974 12.1974 0 0 1-7.2375 11.1384l-1.7569.781a.938.938 0 0 1-.7612 0zM29 6.7138a15.1218 15.1218 0 0 1-7.5 2.5687v2.0925a10.323 10.323 0 0 0 6.1237 9.4256L29 21.4119l1.3762-.6141A10.3197 10.3197 0 0 0 36.5 11.375V9.2825A15.1218 15.1218 0 0 1 29 6.7137zm-.9375 2.5987v1.875h1.875v-1.875h-1.875zm2.8125 6.5625h1.875v1.875h-1.875v-1.875zm-5.625-4.6875h-1.875v1.875h1.875v-1.875zm7.5 0h1.875v1.875H32.75v-1.875zm-5.625 4.6875H25.25v1.875h1.875v-1.875zm-3.0871 29.7254a.9376.9376 0 0 1-.6629.2746h-3.75a.9376.9376 0 0 1-.9375-.9375v-3.75a.9376.9376 0 0 1 .9375-.9375h3.75a.9376.9376 0 0 1 .9375.9375v3.75a.9376.9376 0 0 1-.2746.6629zM22.4375 44v-1.875h-1.875V44h1.875zm4.6875-3.75a.9376.9376 0 0 0-.9375.9375v3.75a.9376.9376 0 0 0 .9375.9375h3.75a.9376.9376 0 0 0 .9375-.9375v-3.75a.9376.9376 0 0 0-.9375-.9375h-3.75zm.9375 3.75v-1.875h1.875V44h-1.875zm5.8996-3.4754a.9376.9376 0 0 1 .6629-.2746h3.75a.9376.9376 0 0 1 .9375.9375v3.75a.9376.9376 0 0 1-.9375.9375h-3.75a.9376.9376 0 0 1-.9375-.9375v-3.75a.9376.9376 0 0 1 .2746-.6629zm1.6004 1.6004V44h1.875v-1.875h-1.875zm-15.9375-3.75h3.75a.9376.9376 0 0 0 .9375-.9375v-3.75a.9376.9376 0 0 0-.9375-.9375h-3.75a.9376.9376 0 0 0-.9375.9375v3.75a.9376.9376 0 0 0 .9375.9375zm2.8125-3.75V36.5h-1.875v-1.875h1.875zm4.6875-1.875h3.75a.9376.9376 0 0 1 .9375.9375v3.75a.9376.9376 0 0 1-.9375.9375h-3.75a.9376.9376 0 0 1-.9375-.9375v-3.75a.9376.9376 0 0 1 .9375-.9375zm.9375 1.875V36.5h1.875v-1.875h-1.875zM38.375 32.75h-3.75a.9376.9376 0 0 0-.9375.9375v3.75a.9376.9376 0 0 0 .9375.9375h3.75a.9376.9376 0 0 0 .9375-.9375v-3.75a.9376.9376 0 0 0-.9375-.9375zm-2.8125 3.75v-1.875h1.875V36.5h-1.875zM23.375 30.875h-3.75a.9376.9376 0 0 1-.9375-.9375v-3.75a.9376.9376 0 0 1 .9375-.9375h3.75a.9376.9376 0 0 1 .9375.9375v3.75a.9376.9376 0 0 1-.9375.9375zM22.4375 29v-1.875h-1.875V29h1.875zm8.4375-3.75h-3.75a.9376.9376 0 0 0-.9375.9375v3.75a.9376.9376 0 0 0 .9375.9375h3.75a.9376.9376 0 0 0 .9375-.9375v-3.75a.9376.9376 0 0 0-.9375-.9375zM28.0625 29v-1.875h1.875V29h-1.875zm5.8996-3.4754a.9376.9376 0 0 1 .6629-.2746h3.75a.9376.9376 0 0 1 .9375.9375v3.75a.9376.9376 0 0 1-.9375.9375h-3.75a.9376.9376 0 0 1-.9375-.9375v-3.75a.9376.9376 0 0 1 .2746-.6629zm1.6004 1.6004V29h1.875v-1.875h-1.875zM6.5 45.875h3.75a.9376.9376 0 0 0 .9375-.9375v-3.75a.9376.9376 0 0 0-.9375-.9375H6.5a.9376.9376 0 0 0-.9375.9375v3.75a.9375.9375 0 0 0 .9375.9375zm.9375-3.75h1.875V44h-1.875v-1.875zm2.8125-3.75H6.5a.9376.9376 0 0 1-.9375-.9375v-3.75A.9375.9375 0 0 1 6.5 32.75h3.75a.9376.9376 0 0 1 .9375.9375v3.75a.9376.9376 0 0 1-.9375.9375zm-.9375-3.75h-1.875V36.5h1.875v-1.875zM6.5 30.875h3.75a.9376.9376 0 0 0 .9375-.9375v-3.75a.9376.9376 0 0 0-.9375-.9375H6.5a.9376.9376 0 0 0-.9375.9375v3.75a.9375.9375 0 0 0 .9375.9375zm.9375-3.75h1.875V29h-1.875v-1.875zM47.75 40.25h3.75a.9376.9376 0 0 1 .9375.9375v3.75a.9376.9376 0 0 1-.9375.9375h-3.75a.9376.9376 0 0 1-.9375-.9375v-3.75a.9376.9376 0 0 1 .9375-.9375zm.9375 3.75h1.875v-1.875h-1.875V44zM51.5 32.75h-3.75a.9376.9376 0 0 0-.9375.9375v3.75a.9376.9376 0 0 0 .9375.9375h3.75a.9376.9376 0 0 0 .9375-.9375v-3.75A.9376.9376 0 0 0 51.5 32.75zm-.9375 3.75h-1.875v-1.875h1.875V36.5zM47.75 25.25h3.75a.9376.9376 0 0 1 .9375.9375v3.75a.9376.9376 0 0 1-.9375.9375h-3.75a.9376.9376 0 0 1-.9375-.9375v-3.75a.9376.9376 0 0 1 .9375-.9375zm.9375 3.75h1.875v-1.875h-1.875V29z" fill="url(#paint0_linear)"/><defs><linearGradient id="paint0_linear" x1="-11.1548" y1="26.9364" x2="45.0952" y2="26.9364" gradientUnits="userSpaceOnUse"><stop stop-color="#00A2C4"/><stop offset=".75" stop-color="#7DC243"/><stop offset="1" stop-color="#B3D347"/></linearGradient></defs></svg>