<svg width="70" height="70" viewBox="0 0 70 70" fill="none" xmlns="http://www.w3.org/2000/svg"><path d="M67.7633 62.0155l-10.9375-35a1.0936 1.0936 0 0 0-1.0446-.7657H24.0625v-3.9254a8.7501 8.7501 0 1 0-8.8462-14.8638 8.7496 8.7496 0 0 0-2.126 10.925A8.7501 8.7501 0 0 0 17.5 22.3244v3.9254h-3.2812a1.0942 1.0942 0 0 0-1.0446.7657l-10.9375 35a1.0934 1.0934 0 0 0 .55 1.3042c.1533.0775.3227.1178.4945.1176h63.4376a1.094 1.094 0 0 0 1.0801-.9147 1.0944 1.0944 0 0 0-.0356-.5071zM14.2188 14.2186a6.5625 6.5625 0 1 1 6.5624 6.5625 6.569 6.569 0 0 1-6.5624-6.5625zm6.5624 8.75a8.7948 8.7948 0 0 0 1.0938-.0755v11.013a1.0934 1.0934 0 0 1-1.0938 1.0937 1.0937 1.0937 0 0 1-1.0937-1.0937v-11.013c.3627.0479.728.0731 1.0937.0755zM4.7688 61.2498l10.2539-32.8125H17.5v5.4688a3.2813 3.2813 0 0 0 6.5625 0v-5.4688h30.9148l10.254 32.8125H4.7687z" fill="#fff"/><path d="M51.4062 41.5625a4.366 4.366 0 0 0-4.3367 3.8151 4.3658 4.3658 0 0 0 3.243 4.7796v4.5303H52.5v-4.5303a4.3662 4.3662 0 0 0-1.0938-8.5947zm0 6.5625a2.1875 2.1875 0 1 1 .0001-4.375 2.1875 2.1875 0 0 1-.0001 4.375zM50.3125 56.875H52.5v2.1875h-2.1875V56.875zM45.9375 56.875h2.1875v2.1875h-2.1875V56.875zM41.5625 56.875H43.75v2.1875h-2.1875V56.875zM18.5938 48.125h19.6874a4.3746 4.3746 0 0 0 4.375-4.375 4.375 4.375 0 0 0-4.375-4.375h-9.8437v2.1875h9.8437a2.1875 2.1875 0 0 1 0 4.375H18.5938a6.5625 6.5625 0 1 0 0 13.125H39.375V56.875H18.5938a4.3746 4.3746 0 0 1-4.375-4.375 4.375 4.375 0 0 1 4.375-4.375z" fill="#fff"/><path d="M24.0625 39.375H26.25v2.1875h-2.1875V39.375zM19.6875 39.375h2.1875v2.1875h-2.1875V39.375zM24.0625 14.2188a3.2809 3.2809 0 0 0-2.0256-3.0315 3.2808 3.2808 0 0 0-3.5758.7113 3.2808 3.2808 0 0 0 .4972 5.0484 3.2809 3.2809 0 0 0 4.1431-.4081 3.2809 3.2809 0 0 0 .9611-2.3201zm-4.375 0a1.0936 1.0936 0 0 1 2.1665-.2134 1.0935 1.0935 0 0 1-.4651 1.1228 1.0935 1.0935 0 0 1-1.381-.1361 1.0933 1.0933 0 0 1-.3204-.7733z" fill="#fff"/></svg>