<svg width="80" height="50" viewBox="0 0 80 50" fill="none" xmlns="http://www.w3.org/2000/svg"><path d="M73.7942 21.2219l-2.09-8.1994c.4823-.1608.9646-.6431.9646-1.2861v-1.2862c0-2.894-2.4116-5.1447-5.1447-5.1447h-9.3248V2.5724C58.1993 1.1254 57.0739 0 55.627 0H7.8778c-1.447 0-2.5723 1.1254-2.5723 2.5724v22.508c0 .6431.4823 1.2862 1.2861 1.2862.8039 0 1.2862-.4824 1.2862-1.2862V2.5724s0-.1608.1608-.1608H55.627s.1608 0 .1608.1608v22.508c0 .6431.4823 1.2862 1.2861 1.2862.6431 0 1.2862-.4824 1.2862-1.2862v-1.4469h14.6302c1.7685 0 3.3762 1.1254 3.8586 2.7331h-3.8586c-.643 0-1.2861.4823-1.2861 1.2861v2.5724c0 2.09 1.7685 3.8585 3.8585 3.8585h1.4469v5.4662h-3.2154c-1.1254-3.0546-4.0193-5.3054-7.3955-5.3054s-6.4309 2.2508-7.3955 5.3054h-.6431v-9.3247c0-.6431-.4823-1.2862-1.2862-1.2862-.643 0-1.2861.4823-1.2861 1.2862v9.3247H29.9035c-1.1254-3.0546-4.0193-5.3054-7.3955-5.3054s-6.4308 2.2508-7.3955 5.3054h-7.074s-.1607 0-.1607-.1607V36.656h5.3055c.6431 0 1.2862-.4824 1.2862-1.2862 0-.6431-.4824-1.2862-1.2862-1.2862H1.2862C.643 34.0836 0 34.5659 0 35.3698c0 .6431.4823 1.2862 1.2862 1.2862h4.0193v2.7331c0 1.4469 1.1254 2.5723 2.5723 2.5723h6.7524v.1608c0 4.3408 3.537 7.8778 7.8778 7.8778 4.3409 0 7.8778-3.537 7.8778-7.8778v-.1608h27.9743v.1608c0 4.3408 3.537 7.8778 7.8778 7.8778 4.3409 0 7.8778-3.537 7.8778-7.8778v-.1608h4.0193c.6431 0 1.2862-.4823 1.2862-1.2861V27.492c-.1608-3.0547-2.5723-5.7878-5.627-6.2701zM58.0386 7.8779h9.3247c1.447 0 2.7332 1.286 2.7332 2.733v.1608H58.0386V7.8779zm0 13.344v-8.0386h11.0932l2.09 8.0386H58.0386zM22.508 47.7492c-2.8939 0-5.3054-2.4115-5.3054-5.3054 0-2.8939 2.4115-5.3055 5.3054-5.3055 2.8939 0 5.3055 2.4116 5.3055 5.3055 0 2.8939-2.4116 5.3054-5.3055 5.3054zm43.5692 0c-2.8939 0-5.3055-2.4115-5.3055-5.3054 0-2.8939 2.4116-5.3055 5.3055-5.3055 2.8938 0 5.3054 2.4116 5.3054 5.3055.1608 2.8939-2.2508 5.3054-5.3054 5.3054zm10.7717-15.9164h-1.447a1.441 1.441 0 0 1-1.4469-1.4469v-1.447h2.7331l.1608 2.8939z" fill="url(#paint0_linear)"/><path d="M22.5079 37.934c-1.4469 0-2.5723 1.1254-2.5723 2.5723 0 1.447 1.1254 2.5724 2.5723 2.5724 1.447 0 2.5724-1.1254 2.5724-2.5724 0-1.4469-1.1254-2.5723-2.5724-2.5723z" fill="url(#paint1_linear)"/><path d="M66.0771 37.934c-1.4469 0-2.5723 1.1254-2.5723 2.5723 0 1.447 1.1254 2.5724 2.5723 2.5724 1.4469 0 2.5723-1.1254 2.5723-2.5724 0-1.4469-1.1254-2.5723-2.5723-2.5723z" fill="url(#paint2_linear)"/><path d="M51.6076 32.6285H33.1189c-.6431 0-1.2862.4823-1.2862 1.2862 0 .6431.4823 1.2861 1.2862 1.2861h18.4887c.6431 0 1.2862-.4822 1.2862-1.2861 0-.6431-.6431-1.2862-1.2862-1.2862z" fill="url(#paint3_linear)"/><path d="M19.7749 27.3228H3.8585c-.643 0-1.2862.4823-1.2862 1.2862 0 .643.4823 1.2861 1.2862 1.2861h15.9164c.6431 0 1.2862-.4823 1.2862-1.2861 0-.6431-.4824-1.2862-1.2862-1.2862z" fill="url(#paint4_linear)"/><path d="M43.2476 10.6027c-.4823-.4823-1.2862-.4823-1.7685 0L30.3858 21.6959l-5.7877-5.7878c-.4824-.4823-1.2862-.4823-1.7685 0-.4823.4824-.4823 1.2862 0 1.7685l6.5916 6.5917c.3215.3215.4823.3216.8039.3216.3215 0 .6431-.1608.8038-.3216L42.926 12.3712c.8039-.6431.8039-1.2862.3216-1.7685z" fill="url(#paint5_linear)"/><defs><linearGradient id="paint0_linear" x1="-16.9853" y1="23.1657" x2="62.4359" y2="23.1657" gradientUnits="userSpaceOnUse"><stop stop-color="#00A2C4"/><stop offset=".75" stop-color="#7DC243"/><stop offset="1" stop-color="#B3D347"/></linearGradient><linearGradient id="paint1_linear" x1="18.8353" y1="40.3176" x2="23.98" y2="40.3176" gradientUnits="userSpaceOnUse"><stop stop-color="#00A2C4"/><stop offset=".75" stop-color="#7DC243"/><stop offset="1" stop-color="#B3D347"/></linearGradient><linearGradient id="paint2_linear" x1="62.4045" y1="40.3176" x2="67.5492" y2="40.3176" gradientUnits="userSpaceOnUse"><stop stop-color="#00A2C4"/><stop offset=".75" stop-color="#7DC243"/><stop offset="1" stop-color="#B3D347"/></linearGradient><linearGradient id="paint3_linear" x1="27.3285" y1="33.8203" x2="48.3896" y2="33.8203" gradientUnits="userSpaceOnUse"><stop stop-color="#00A2C4"/><stop offset=".75" stop-color="#7DC243"/><stop offset="1" stop-color="#B3D347"/></linearGradient><linearGradient id="paint4_linear" x1="-1.3817" y1="28.5146" x2="17.107" y2="28.5146" gradientUnits="userSpaceOnUse"><stop stop-color="#00A2C4"/><stop offset=".75" stop-color="#7DC243"/><stop offset="1" stop-color="#B3D347"/></linearGradient><linearGradient id="paint5_linear" x1="17.9534" y1="16.889" x2="39.0623" y2="16.889" gradientUnits="userSpaceOnUse"><stop stop-color="#00A2C4"/><stop offset=".75" stop-color="#7DC243"/><stop offset="1" stop-color="#B3D347"/></linearGradient></defs></svg>