<svg width="40" height="40" viewBox="0 0 40 40" fill="none" xmlns="http://www.w3.org/2000/svg"><path d="M12.1773 27.8661l-.023-.0229a.7813.7813 0 0 0-1.1022 1.1075l.0255.0254a.779.779 0 0 0 .5498.2263.779.779 0 0 0 .5551-.2315.7812.7812 0 0 0-.0052-1.1048z" fill="url(#paint0_linear)"/><path d="M28.9494 11.0506c-4.9346-4.9347-12.964-4.9347-17.8987 0-4.0397 4.0397-4.8723 10.3149-2.0248 15.26a.7814.7814 0 0 0 1.3541-.7797c-2.4957-4.3341-1.7656-9.8343 1.7755-13.3754 4.3255-4.3255 11.3636-4.3255 15.689 0 4.3255 4.3254 4.3255 11.3635 0 15.689-3.5626 3.5626-9.0858 4.2794-13.4312 1.7432a.781.781 0 0 0-1.0685.2809.7813.7813 0 0 0 .2809 1.0686c1.9827 1.1573 4.1799 1.7208 6.3634 1.7208 3.2764 0 6.5214-1.2697 8.9603-3.7087 4.9347-4.9347 4.9347-12.964 0-17.8987z" fill="url(#paint1_linear)"/><path d="M39.9973 16.5673a.7813.7813 0 0 0-.659-.7713l-2.8838-.4569-1.53-3.6896 1.7143-2.3636a.7811.7811 0 0 0-.0801-1.0113l-4.8454-4.8421a.7812.7812 0 0 0-1.0114-.0795l-2.3614 1.7154-3.6921-1.5277-.4589-2.8823A.7814.7814 0 0 0 23.4179 0h-.0003l-6.8503.0028a.7814.7814 0 0 0-.7713.659l-.4569 2.8838-3.6896 1.53-2.3636-1.7143a.7812.7812 0 0 0-1.0112.0801L3.4326 8.2868a.7813.7813 0 0 0-.0795 1.0114l1.7154 2.3613-1.5277 3.6922-2.8824.4589A.7813.7813 0 0 0 0 16.5824l.0028 6.8502a.7813.7813 0 0 0 .659.7713l2.8838.457 1.53 3.6896-1.7143 2.3636a.7811.7811 0 0 0 .0801 1.0112l4.8454 4.8421a.7812.7812 0 0 0 1.0114.0795l2.3613-1.7154 3.6922 1.5277.4589 2.8824a.7812.7812 0 0 0 .7715.6584h.0003l6.8502-.0029a.7813.7813 0 0 0 .7713-.659l.457-2.8838 3.6896-1.5299 2.3636 1.7143a.781.781 0 0 0 1.0112-.0802l4.8421-4.8454a.7812.7812 0 0 0 .0795-1.0114l-1.7154-2.3613 1.5277-3.6922 2.8824-.4589A.7813.7813 0 0 0 40 23.4175l-.0027-6.8502zm-4.2155 6.6066a.781.781 0 0 0-.5991.4728l-1.8621 4.5003a.7813.7813 0 0 0 .0899.7579l1.5804 2.1755-3.8993 3.9019-2.1777-1.5795a.7818.7818 0 0 0-.758-.0893l-4.4975 1.865a.7812.7812 0 0 0-.4723.5994l-.421 2.6569-5.5162.0024-.4228-2.6555a.781.781 0 0 0-.4728-.599l-4.5003-1.8622a.7807.7807 0 0 0-.7578.0899l-2.1755 1.5804-3.9019-3.8992 1.5795-2.1778a.7811.7811 0 0 0 .0892-.7579l-1.865-4.4975a.7811.7811 0 0 0-.5993-.4724l-2.657-.421-.0023-5.5162 2.6555-.4228a.781.781 0 0 0 .599-.4728l1.8621-4.5003a.7813.7813 0 0 0-.0898-.7579L5.0093 8.9195l3.8992-3.9018 2.1778 1.5794a.781.781 0 0 0 .7579.0893l4.4975-1.865a.7813.7813 0 0 0 .4724-.5994l.4209-2.657 5.5163-.0023.4228 2.6555a.781.781 0 0 0 .4728.599l4.5003 1.8622a.7817.7817 0 0 0 .7579-.0899l2.1754-1.5804 3.9019 3.8993-1.5794 2.1777a.7813.7813 0 0 0-.0893.758l1.865 4.4975a.781.781 0 0 0 .5993.4723l2.6571.421.0022 5.5162-2.6555.4228z" fill="url(#paint2_linear)"/><path d="M27.1173 20.9736c-.9771-.8877-2.2902-1.2733-3.5864-1.0716l-3.4311-3.431c.2087-1.359-.2395-2.7576-1.2219-3.7401a4.3442 4.3442 0 0 0-4.6916-.9613.7813.7813 0 0 0-.2621 1.2778l1.1328 1.1328a.6156.6156 0 0 1 0 .8697.6154.6154 0 0 1-.8697 0l-1.1368-1.1368a.7812.7812 0 0 0-1.2765.2593c-.6812 1.6821-.2355 3.633 1.109 4.8545.9781.8888 2.2922 1.2743 3.5899 1.0712l3.4279 3.4279c-.21 1.3602.2379 2.7601 1.2215 3.7437a4.3392 4.3392 0 0 0 3.0721 1.2742 4.3554 4.3554 0 0 0 1.6321-.318.7813.7813 0 0 0 .2598-1.2768l-1.1276-1.1278a.6156.6156 0 0 1 0-.8697.6154.6154 0 0 1 .8697 0l1.1254 1.1254a.7812.7812 0 0 0 1.2775-.2615c.6736-1.6788.226-3.6246-1.114-4.8419zm-.1841 2.8732c-.8491-.849-2.2306-.8491-3.0795 0-.849.8491-.849 2.2305 0 3.0795l.0381.0382a2.7806 2.7806 0 0 1-1.6648-.7997c-.7008-.7008-.9772-1.7321-.721-2.6915a.7809.7809 0 0 0-.2023-.7539l-4.0244-4.0244a.7814.7814 0 0 0-.7527-.2027c-.9253.2457-1.8947.013-2.5932-.6217-.513-.4663-.822-1.0982-.896-1.7607l.0449.045c.8491.8489 2.2305.849 3.0796 0 .849-.8491.849-2.2305 0-3.0795l-.037-.0369a2.78 2.78 0 0 1 1.6481.7974c.7.7001.9765 1.7304.7216 2.689a.7811.7811 0 0 0 .2026.7533l4.0267 4.0267a.781.781 0 0 0 .752.2029c.9243-.2442 1.8928-.0115 2.5907.6224.5083.4618.8164 1.0872.8938 1.7438l-.0272-.0272z" fill="url(#paint3_linear)"/><path d="M27.1362 14.4211c-1.2876-1.6448-3.1129-2.8017-5.1399-3.2578a.7813.7813 0 0 0-.343 1.5244c1.6764.3772 3.1866 1.3348 4.2526 2.6966a.7797.7797 0 0 0 .6157.2997.7813.7813 0 0 0 .6146-1.2629z" fill="url(#paint4_linear)"/><path d="M28.6287 17.2382l-.0114-.0353a.7813.7813 0 0 0-1.4869.4802l.01.0306a.7816.7816 0 0 0 .744.5438.7813.7813 0 0 0 .2378-.0373.7811.7811 0 0 0 .5065-.982z" fill="url(#paint5_linear)"/><defs><linearGradient id="paint0_linear" x1="10.9759" y1="26.8918" x2="12.8244" y2="28.3897" gradientUnits="userSpaceOnUse"><stop stop-color="#00A2C4"/><stop offset="1" stop-color="#7DC243"/></linearGradient><linearGradient id="paint1_linear" x1="9.8" y1="-4.1974" x2="39.2852" y2="19.6897" gradientUnits="userSpaceOnUse"><stop stop-color="#00A2C4"/><stop offset="1" stop-color="#7DC243"/></linearGradient><linearGradient id="paint2_linear" x1="3.8806" y1="-18.25" x2="50.4831" y2="19.509" gradientUnits="userSpaceOnUse"><stop stop-color="#00A2C4"/><stop offset="1" stop-color="#7DC243"/></linearGradient><linearGradient id="paint3_linear" x1="13.1158" y1="3.6611" x2="33.0221" y2="19.786" gradientUnits="userSpaceOnUse"><stop stop-color="#00A2C4"/><stop offset="1" stop-color="#7DC243"/></linearGradient><linearGradient id="paint4_linear" x1="21.6506" y1="9.0727" x2="27.0246" y2="15.0754" gradientUnits="userSpaceOnUse"><stop stop-color="#00A2C4"/><stop offset="1" stop-color="#7DC243"/></linearGradient><linearGradient id="paint5_linear" x1="27.2451" y1="15.9335" x2="29.0987" y2="17.4145" gradientUnits="userSpaceOnUse"><stop stop-color="#00A2C4"/><stop offset="1" stop-color="#7DC243"/></linearGradient></defs></svg>