<svg width="40" height="40" viewBox="0 0 40 40" fill="none" xmlns="http://www.w3.org/2000/svg"><path d="M38.7219 35.4373l-6.25-20a.6255.6255 0 0 0-.5969-.4375H13.75v-2.2431a5 5 0 1 0-3.75 0v2.2431H8.125a.6254.6254 0 0 0-.5969.4375l-6.25 20a.625.625 0 0 0 .597.8125H38.125a.6254.6254 0 0 0 .5044-.2549.6254.6254 0 0 0 .0925-.5576zM8.125 8.1248a3.75 3.75 0 1 1 3.75 3.75 3.754 3.754 0 0 1-3.75-3.75zm3.75 5a5.0056 5.0056 0 0 0 .625-.0431v6.2931a.625.625 0 1 1-1.25 0v-6.2931c.2073.0274.416.0418.625.0431zm-9.15 21.875l5.8594-18.75H10v3.125a1.875 1.875 0 1 0 3.75 0v-3.125h17.6656l5.8594 18.75H2.725z" fill="url(#paint0_linear)" stroke="url(#paint1_linear)" stroke-width=".2"/><path d="M29.375 23.75a2.4949 2.4949 0 0 0-2.0677 3.8958c.3412.5029.8542.864 1.4427 1.0155V31.25H30v-2.5887a2.4952 2.4952 0 0 0-.625-4.9113zm0 3.75a1.25 1.25 0 1 1 0-2.4999 1.25 1.25 0 0 1 0 2.4999z" fill="url(#paint2_linear)" stroke="url(#paint3_linear)" stroke-width=".2"/><path d="M28.75 32.5H30v1.25h-1.25V32.5z" fill="url(#paint4_linear)" stroke="url(#paint5_linear)" stroke-width=".2"/><path d="M26.25 32.5h1.25v1.25h-1.25V32.5z" fill="url(#paint6_linear)" stroke="url(#paint7_linear)" stroke-width=".2"/><path d="M23.75 32.5H25v1.25h-1.25V32.5z" fill="url(#paint8_linear)" stroke="url(#paint9_linear)" stroke-width=".2"/><path d="M10.625 27.5h11.25c.663 0 1.2989-.2634 1.7678-.7322a2.5004 2.5004 0 0 0 0-3.5356A2.5004 2.5004 0 0 0 21.875 22.5H16.25v1.25h5.625a1.2501 1.2501 0 0 1 0 2.5h-11.25A3.7502 3.7502 0 0 0 6.875 30a3.7501 3.7501 0 0 0 3.75 3.75H22.5V32.5H10.625a2.5001 2.5001 0 0 1-1.7678-4.2678A2.5001 2.5001 0 0 1 10.625 27.5z" fill="url(#paint10_linear)" stroke="url(#paint11_linear)" stroke-width=".2"/><path d="M13.75 22.5H15v1.25h-1.25V22.5z" fill="url(#paint12_linear)" stroke="url(#paint13_linear)" stroke-width=".2"/><path d="M11.25 22.5h1.25v1.25h-1.25V22.5z" fill="url(#paint14_linear)" stroke="url(#paint15_linear)" stroke-width=".2"/><path d="M13.75 8.125a1.8752 1.8752 0 0 0-2.2408-1.839 1.8748 1.8748 0 0 0-1.3665 2.5565A1.8753 1.8753 0 0 0 11.875 10a1.8749 1.8749 0 0 0 1.875-1.875zm-2.5 0a.6256.6256 0 0 1 .3858-.5774.625.625 0 1 1-.3858.5774z" fill="url(#paint16_linear)" stroke="url(#paint17_linear)" stroke-width=".2"/><defs><linearGradient id="paint0_linear" x1="4.8876" y1="-11.9932" x2="44.1948" y2="24.059" gradientUnits="userSpaceOnUse"><stop stop-color="#00A2C4"/><stop offset="1" stop-color="#7DC243"/></linearGradient><linearGradient id="paint1_linear" x1="4.8876" y1="-11.9932" x2="44.1948" y2="24.059" gradientUnits="userSpaceOnUse"><stop stop-color="#00A2C4"/><stop offset="1" stop-color="#7DC243"/></linearGradient><linearGradient id="paint2_linear" x1="27.3616" y1="20.3281" x2="34.8285" y2="24.3584" gradientUnits="userSpaceOnUse"><stop stop-color="#00A2C4"/><stop offset="1" stop-color="#7DC243"/></linearGradient><linearGradient id="paint3_linear" x1="27.3616" y1="20.3281" x2="34.8285" y2="24.3584" gradientUnits="userSpaceOnUse"><stop stop-color="#00A2C4"/><stop offset="1" stop-color="#7DC243"/></linearGradient><linearGradient id="paint4_linear" x1="28.8713" y1="31.9297" x2="30.3276" y2="33.1097" gradientUnits="userSpaceOnUse"><stop stop-color="#00A2C4"/><stop offset="1" stop-color="#7DC243"/></linearGradient><linearGradient id="paint5_linear" x1="28.8713" y1="31.9297" x2="30.3276" y2="33.1097" gradientUnits="userSpaceOnUse"><stop stop-color="#00A2C4"/><stop offset="1" stop-color="#7DC243"/></linearGradient><linearGradient id="paint6_linear" x1="26.3713" y1="31.9297" x2="27.8276" y2="33.1097" gradientUnits="userSpaceOnUse"><stop stop-color="#00A2C4"/><stop offset="1" stop-color="#7DC243"/></linearGradient><linearGradient id="paint7_linear" x1="26.3713" y1="31.9297" x2="27.8276" y2="33.1097" gradientUnits="userSpaceOnUse"><stop stop-color="#00A2C4"/><stop offset="1" stop-color="#7DC243"/></linearGradient><linearGradient id="paint8_linear" x1="23.8713" y1="31.9297" x2="25.3276" y2="33.1097" gradientUnits="userSpaceOnUse"><stop stop-color="#00A2C4"/><stop offset="1" stop-color="#7DC243"/></linearGradient><linearGradient id="paint9_linear" x1="23.8713" y1="31.9297" x2="25.3276" y2="33.1097" gradientUnits="userSpaceOnUse"><stop stop-color="#00A2C4"/><stop offset="1" stop-color="#7DC243"/></linearGradient><linearGradient id="paint10_linear" x1="8.5728" y1="17.3672" x2="21.6201" y2="33.8116" gradientUnits="userSpaceOnUse"><stop stop-color="#00A2C4"/><stop offset="1" stop-color="#7DC243"/></linearGradient><linearGradient id="paint11_linear" x1="8.5728" y1="17.3672" x2="21.6201" y2="33.8116" gradientUnits="userSpaceOnUse"><stop stop-color="#00A2C4"/><stop offset="1" stop-color="#7DC243"/></linearGradient><linearGradient id="paint12_linear" x1="13.8713" y1="21.9297" x2="15.3276" y2="23.1097" gradientUnits="userSpaceOnUse"><stop stop-color="#00A2C4"/><stop offset="1" stop-color="#7DC243"/></linearGradient><linearGradient id="paint13_linear" x1="13.8713" y1="21.9297" x2="15.3276" y2="23.1097" gradientUnits="userSpaceOnUse"><stop stop-color="#00A2C4"/><stop offset="1" stop-color="#7DC243"/></linearGradient><linearGradient id="paint14_linear" x1="11.3713" y1="21.9297" x2="12.8276" y2="23.1097" gradientUnits="userSpaceOnUse"><stop stop-color="#00A2C4"/><stop offset="1" stop-color="#7DC243"/></linearGradient><linearGradient id="paint15_linear" x1="11.3713" y1="21.9297" x2="12.8276" y2="23.1097" gradientUnits="userSpaceOnUse"><stop stop-color="#00A2C4"/><stop offset="1" stop-color="#7DC243"/></linearGradient><linearGradient id="paint16_linear" x1="10.3638" y1="4.5391" x2="14.7328" y2="8.079" gradientUnits="userSpaceOnUse"><stop stop-color="#00A2C4"/><stop offset="1" stop-color="#7DC243"/></linearGradient><linearGradient id="paint17_linear" x1="10.3638" y1="4.5391" x2="14.7328" y2="8.079" gradientUnits="userSpaceOnUse"><stop stop-color="#00A2C4"/><stop offset="1" stop-color="#7DC243"/></linearGradient></defs></svg>