<svg xmlns="http://www.w3.org/2000/svg" viewBox="0 0 496 496"><linearGradient id="a" gradientUnits="userSpaceOnUse" x1="88" y1="248" x2="408" y2="248"><stop offset="0" stop-color="#00a2c4"/><stop offset="1" stop-color="#7dc243"/></linearGradient><path d="M248 0C159.8 0 88 71.8 88 160v1c0 42.7 16.6 82.9 46.9 113.1l12.4 12.4c32.8 32.8 55.7 72.7 67.8 116.8-33.3 7.1-55.1 24.4-55.1 44.6 0 26.9 38.7 48 88 48s88-21.1 88-48c0-20.2-21.8-37.5-55.1-44.6 12.1-44.1 35.1-84.1 67.8-116.8l12.4-12.4C391.4 244 408 203.8 408 161v-1C408 71.8 336.2 0 248 0zm72 448c0 15.1-29.6 32-72 32s-72-16.9-72-32c0-11.9 18-23.8 42.9-29.1 1 4.8 2.1 9.6 2.8 14.5 2 13.1 13.1 22.6 26.3 22.6s24.3-9.5 26.3-22.6c.8-4.9 1.8-9.7 2.8-14.5C302 424.2 320 436.1 320 448zm72-287c0 38.5-15 74.6-42.2 101.8l-12.4 12.4c-42.5 42.5-69.8 96.3-78.9 155.7-.8 5.2-5.2 9-10.5 9s-9.7-3.8-10.5-9c-9.1-59.4-36.4-113.2-78.9-155.7l-12.4-12.4C119 235.7 104 199.5 104 161v-1c0-79.4 64.6-144 144-144s144 64.6 144 144v1z" fill="url(#a)"/><linearGradient id="b" gradientUnits="userSpaceOnUse" x1="136" y1="160" x2="360" y2="160"><stop offset="0" stop-color="#00a2c4"/><stop offset="1" stop-color="#7dc243"/></linearGradient><path d="M248 48c-61.8 0-112 50.2-112 112s50.2 112 112 112 112-50.2 112-112S309.8 48 248 48zm0 208c-52.9 0-96-43.1-96-96s43.1-96 96-96 96 43.1 96 96-43.1 96-96 96z" fill="url(#b)"/><linearGradient id="c" gradientUnits="userSpaceOnUse" x1="208" y1="296" x2="224" y2="296"><stop offset="0" stop-color="#00a2c4"/><stop offset="1" stop-color="#7dc243"/></linearGradient><path d="M208 288h16v16h-16v-16z" fill="url(#c)"/><linearGradient id="d" gradientUnits="userSpaceOnUse" x1="240" y1="296" x2="256" y2="296"><stop offset="0" stop-color="#00a2c4"/><stop offset="1" stop-color="#7dc243"/></linearGradient><path d="M240 288h16v16h-16v-16z" fill="url(#d)"/><linearGradient id="e" gradientUnits="userSpaceOnUse" x1="272" y1="296" x2="288" y2="296"><stop offset="0" stop-color="#00a2c4"/><stop offset="1" stop-color="#7dc243"/></linearGradient><path d="M272 288h16v16h-16v-16z" fill="url(#e)"/></svg>