<svg width="35" height="35" viewBox="0 0 35 35" fill="none" xmlns="http://www.w3.org/2000/svg"><g clip-path="url(#clip0)" stroke-width=".5"><path d="M33.5121.876H9.0645c-.8213.001-1.487.6665-1.4879 1.4878v6.7433l-1.118-1.677c-.5116-.7718-1.5408-1.0034-2.3338-.525l-2.3 1.3828a3.3746 3.3746 0 0 0-1.5416 1.9996c-.839 3.0551-.2165 8.3186 7.5094 16.0456 6.1439 6.1376 10.7248 7.7906 13.882 7.7906a8.1482 8.1482 0 0 0 2.1647-.2824 3.3802 3.3802 0 0 0 2.0001-1.5398l1.3811-2.3024c.4764-.7924.2451-1.8194-.5251-2.331l-5.5075-3.6713c-.7554-.4996-1.7681-.3353-2.3269.3775l-1.6034 2.0615a.5585.5585 0 0 1-.7142.1511l-.3051-.1681c-1.0042-.5473-2.254-1.2288-4.7781-3.7529a41.4434 41.4434 0 0 1-.7527-.7731h22.8046c.8193.0006 1.4847-.6616 1.4879-1.4809V2.3639c-.0009-.8214-.6665-1.487-1.4879-1.488zM15.6799 27.4435l.2964.1628c.7451.4166 1.683.2233 2.2026-.454l1.6034-2.0614a.5671.5671 0 0 1 .7585-.1231l5.5075 3.6712a.5636.5636 0 0 1 .1709.7585L24.8381 31.7a2.2172 2.2172 0 0 1-1.3075 1.0152c-2.7581.7585-7.5852.1167-14.9114-7.21C1.2931 18.1785.6537 13.3519 1.4104 10.5961A2.2172 2.2172 0 0 1 2.425 9.2886l2.3025-1.3817a.5642.5642 0 0 1 .7585.171l3.673 5.5074a.5665.5665 0 0 1-.1232.7585l-2.062 1.6039c-.6772.5195-.8705 1.4572-.454 2.2021l.1634.2964c.5834 1.0701 1.3087 2.4016 3.9524 5.0447 2.6439 2.6432 3.9748 3.3691 5.0443 3.9526zm18.1532-7.0316a.3185.3185 0 0 1-.3209.3151H9.6549a14.7154 14.7154 0 0 1-1.947-2.838l-.1681-.3063a.5567.5567 0 0 1 .1505-.7131l2.062-1.6039c.7132-.5587.8775-1.5714.3776-2.3269l-1.3864-2.0807V2.3638a.3174.3174 0 0 1 .321-.3209H33.512a.3175.3175 0 0 1 .3209.321v18.048h.0001z" fill="url(#paint0_linear)" stroke="url(#paint1_linear)"/><path d="M31.5026 3.5772l-9.7516 7.3955a.787.787 0 0 1-.9254 0l-9.7481-7.3956a.5836.5836 0 1 0-.7054.9301l9.7493 7.395a1.964 1.964 0 0 0 2.3339 0l9.7522-7.395a.5834.5834 0 0 0 .112-.818.5834.5834 0 0 0-.8169-.112z" fill="url(#paint2_linear)" stroke="url(#paint3_linear)"/><path d="M16.3089 11.9515l-5.9771 6.4007a.5836.5836 0 1 0 .8536.7959l5.9771-6.4036a.5836.5836 0 0 0-.8536-.793z" fill="url(#paint4_linear)" stroke="url(#paint5_linear)"/><path d="M26.3062 11.9512a.5834.5834 0 0 0-.8247-.0288.5835.5835 0 0 0-.0289.8247l5.9754 6.4008a.5836.5836 0 0 0 .8537-.7959l-5.9755-6.4008z" fill="url(#paint6_linear)" stroke="url(#paint7_linear)"/></g><defs><linearGradient id="paint0_linear" x1="3.3956" y1="-14.2933" x2="42.4964" y2="19.0571" gradientUnits="userSpaceOnUse"><stop stop-color="#00A2C4"/><stop offset="1" stop-color="#7DC243"/></linearGradient><linearGradient id="paint1_linear" x1="3.3956" y1="-14.2933" x2="42.4964" y2="19.0571" gradientUnits="userSpaceOnUse"><stop stop-color="#00A2C4"/><stop offset="1" stop-color="#7DC243"/></linearGradient><linearGradient id="paint2_linear" x1="12.3043" y1="-.5693" x2="20.5988" y2="16.4051" gradientUnits="userSpaceOnUse"><stop stop-color="#00A2C4"/><stop offset="1" stop-color="#7DC243"/></linearGradient><linearGradient id="paint3_linear" x1="12.3043" y1="-.5693" x2="20.5988" y2="16.4051" gradientUnits="userSpaceOnUse"><stop stop-color="#00A2C4"/><stop offset="1" stop-color="#7DC243"/></linearGradient><linearGradient id="paint4_linear" x1="10.866" y1="8.3461" x2="19.5381" y2="14.9783" gradientUnits="userSpaceOnUse"><stop stop-color="#00A2C4"/><stop offset="1" stop-color="#7DC243"/></linearGradient><linearGradient id="paint5_linear" x1="10.866" y1="8.3461" x2="19.5381" y2="14.9783" gradientUnits="userSpaceOnUse"><stop stop-color="#00A2C4"/><stop offset="1" stop-color="#7DC243"/></linearGradient><linearGradient id="paint6_linear" x1="25.9888" y1="8.3128" x2="34.6869" y2="14.9642" gradientUnits="userSpaceOnUse"><stop stop-color="#00A2C4"/><stop offset="1" stop-color="#7DC243"/></linearGradient><linearGradient id="paint7_linear" x1="25.9888" y1="8.3128" x2="34.6869" y2="14.9642" gradientUnits="userSpaceOnUse"><stop stop-color="#00A2C4"/><stop offset="1" stop-color="#7DC243"/></linearGradient><clipPath id="clip0"><path fill="#fff" d="M0 0h35v35H0z"/></clipPath></defs></svg>