<svg width="35" height="35" viewBox="0 0 35 35" fill="none" xmlns="http://www.w3.org/2000/svg"><g clip-path="url(#clip0)" stroke="#fff" stroke-width=".4"><path d="M34.0972 11.0145c-1.1994-1.1994-3.1509-1.1993-4.3507.0003l-3.0849 3.0875v-8.126c0-.8216-.32-1.594-.9011-2.175L22.8604.901C22.2794.32 21.5069 0 20.6852 0H3.0776C1.3814 0 .0014 1.38.0014 3.0762v28.8476C.0014 33.62 1.3814 35 3.0776 35h20.5078c1.6962 0 3.0762-1.38 3.0762-3.0762v-9.117l7.4355-7.4419c1.2023-1.2021 1.2026-3.1481.0001-4.3504zM20.5093 2.0508c.1937 0 .567-.0336.901.3003l2.9002 2.9003c.3254.3254.3003.682.3003.901h-4.1015V2.0507zm4.1015 29.873c0 .5654-.4599 1.0254-1.0254 1.0254H3.0776c-.5654 0-1.0254-.46-1.0254-1.0254V3.0762c0-.5654.46-1.0254 1.0254-1.0254h15.3808v5.127c0 .5662.4591 1.0253 1.0254 1.0253h5.127v7.9518l-3.0253 3.0278-1.4495 1.4495a1.0253 1.0253 0 0 0-.2477.4008l-1.4502 4.3504a1.0253 1.0253 0 1 0 1.2971 1.2971l4.3504-1.4501a1.0262 1.0262 0 0 0 .4008-.2478l.1244-.1244v7.0656zm-2.2996-10.5665l1.4501 1.4501-.5539.5539-2.1752.7251.725-2.1752.554-.5539zm2.8999-.0003l-1.4501-1.4501 4.9291-4.9333 1.4501 1.4501-4.9291 4.9333zm7.4357-7.4419l-1.0571 1.0579-1.4501-1.4501 1.0574-1.0583c.4-.3998 1.0504-.3997 1.4502 0a1.025 1.025 0 0 1-.0004 1.4505z" fill="url(#paint0_linear)"/><path d="M19.4836 10.2539H5.1282c-.5663 0-1.0254.4591-1.0254 1.0254s.459 1.0254 1.0254 1.0254h14.3554c.5663 0 1.0254-.4591 1.0254-1.0254s-.4591-1.0254-1.0254-1.0254z" fill="url(#paint1_linear)"/><path d="M15.3821 14.3555H5.1281c-.5662 0-1.0253.4591-1.0253 1.0254 0 .5662.459 1.0253 1.0254 1.0253H15.382c.5663 0 1.0254-.4591 1.0254-1.0253 0-.5663-.4591-1.0254-1.0254-1.0254z" fill="url(#paint2_linear)"/><path d="M15.3821 18.457H5.1281c-.5662 0-1.0253.4591-1.0253 1.0254s.459 1.0254 1.0254 1.0254H15.382c.5663 0 1.0254-.4591 1.0254-1.0254s-.4591-1.0254-1.0254-1.0254z" fill="url(#paint3_linear)"/><path d="M15.3821 22.5586H5.1281c-.5662 0-1.0253.4591-1.0253 1.0254s.459 1.0254 1.0254 1.0254H15.382c.5663 0 1.0254-.4591 1.0254-1.0254s-.4591-1.0254-1.0254-1.0254z" fill="url(#paint4_linear)"/><path d="M19.4836 28.8477h-6.1523c-.5663 0-1.0254.4591-1.0254 1.0253 0 .5663.4591 1.0254 1.0254 1.0254h6.1523c.5663 0 1.0254-.4591 1.0254-1.0254 0-.5662-.4591-1.0253-1.0254-1.0253z" fill="url(#paint5_linear)"/></g><defs><linearGradient id="paint0_linear" x1="3.3967" y1="-15.9687" x2="44.1733" y2="17.0675" gradientUnits="userSpaceOnUse"><stop stop-color="#00A2C4"/><stop offset="1" stop-color="#7DC243"/></linearGradient><linearGradient id="paint1_linear" x1="5.6944" y1="9.3182" x2="6.4305" y2="14.0894" gradientUnits="userSpaceOnUse"><stop stop-color="#00A2C4"/><stop offset="1" stop-color="#7DC243"/></linearGradient><linearGradient id="paint2_linear" x1="5.2965" y1="13.4198" x2="6.2605" y2="18.1063" gradientUnits="userSpaceOnUse"><stop stop-color="#00A2C4"/><stop offset="1" stop-color="#7DC243"/></linearGradient><linearGradient id="paint3_linear" x1="5.2965" y1="17.5214" x2="6.2605" y2="22.2078" gradientUnits="userSpaceOnUse"><stop stop-color="#00A2C4"/><stop offset="1" stop-color="#7DC243"/></linearGradient><linearGradient id="paint4_linear" x1="5.2965" y1="21.6229" x2="6.2605" y2="26.3094" gradientUnits="userSpaceOnUse"><stop stop-color="#00A2C4"/><stop offset="1" stop-color="#7DC243"/></linearGradient><linearGradient id="paint5_linear" x1="13.1017" y1="27.912" x2="14.4779" y2="32.3721" gradientUnits="userSpaceOnUse"><stop stop-color="#00A2C4"/><stop offset="1" stop-color="#7DC243"/></linearGradient><clipPath id="clip0"><path fill="#fff" d="M0 0h35v35H0z"/></clipPath></defs></svg>