<svg width="40" height="40" viewBox="0 0 40 40" fill="none" xmlns="http://www.w3.org/2000/svg"><path d="M32.7021 26.3041c-.9774 0-1.9059.3829-2.6064 1.0752-.7005.7005-1.0914 1.6127-1.0914 2.5901s.3828 1.8896 1.0914 2.5901c.7086.6923 1.629 1.0751 2.6064 1.0751 2.0037 0 3.6327-1.6453 3.6327-3.6652 0-2.02-1.629-3.6653-3.6327-3.6653zm0 5.7015c-1.124 0-2.0688-.9285-2.0688-2.0362s.9448-2.0363 2.0688-2.0363c1.1077 0 2.0037.9123 2.0037 2.0363s-.896 2.0362-2.0037 2.0362zm.9448-17.9108c-.1466-.1384-.3421-.2117-.5457-.2117h-4.1784c-.4479 0-.8145.3665-.8145.8144v6.6789c0 .448.3666.8145.8145.8145h6.63c.448 0 .8145-.3665.8145-.8145v-4.4716a.8153.8153 0 0 0-.2687-.6027l-2.4517-2.2073zm1.0914 6.4671h-5.001v-5.058h3.0462l1.9548 1.7593v3.2987zm-21.9262 5.7422c-.9774 0-1.906.3829-2.6064 1.0752-.7005.7005-1.0915 1.6127-1.0915 2.5901s.3828 1.8896 1.0915 2.5901c.7086.6923 1.629 1.0751 2.6064 1.0751 2.0036 0 3.6326-1.6453 3.6326-3.6652 0-2.02-1.629-3.6653-3.6326-3.6653zm0 5.7015c-1.1241 0-2.0689-.9285-2.0689-2.0362s.9448-2.0363 2.0689-2.0363c1.1077 0 2.0036.9123 2.0036 2.0363s-.8959 2.0362-2.0036 2.0362zM7.3794 27.306H5.7421v-2.1666c0-.448-.3665-.8145-.8145-.8145s-.8145.3665-.8145.8145v2.9811c0 .448.3665.8145.8145.8145h2.4516c.448 0 .8145-.3665.8145-.8145s-.3665-.8145-.8144-.8145zm4.1295-4.439c0-.448-.3666-.8145-.8145-.8145H.8145c-.448 0-.8145.3665-.8145.8145 0 .4479.3665.8145.8145.8145h9.8799a.8117.8117 0 0 0 .8145-.8145zm-9.041-2.9404l9.8799.057c.448 0 .8145-.3583.8226-.8063a.8066.8066 0 0 0-.8063-.8227l-9.8799-.057h-.0081c-.448 0-.8145.3584-.8145.8064a.8066.8066 0 0 0 .8063.8226zm1.6616-3.6978h9.8799c.4479 0 .8145-.3665.8145-.8145s-.3666-.8145-.8145-.8145H4.1295c-.448 0-.8145.3665-.8145.8145s.3665.8145.8145.8145zm35.5691-1.0996l-5.8318-4.8299c-.1466-.1222-.3258-.1874-.5212-.1874h-6.8581V7.1797c0-.448-.3665-.8145-.8145-.8145H4.9277c-.448 0-.8145.3666-.8145.8145v5.9622c0 .4479.3665.8145.8145.8145s.8145-.3666.8145-.8145V7.9942h19.1244V27.306h-6.6789c-.4479 0-.8145.3665-.8145.8145s.3666.8145.8145.8145h9.9451c.4479 0 .8145-.3665.8145-.8145s-.3666-.8145-.8145-.8145h-1.6372V11.7409h6.5649l5.3105 4.3983-.057 11.1505h-.8471c-.448 0-.8145.3665-.8145.8145s.3665.8145.8145.8145h1.6534c.448 0 .8145-.3584.8145-.8064L40 15.7645c-.0081-.2443-.114-.4805-.3014-.6353z" fill="url(#paint0_linear)"/><defs><linearGradient id="paint0_linear" x1="3.8806" y1="-6.0764" x2="35.8789" y2="31.9532" gradientUnits="userSpaceOnUse"><stop stop-color="#00A2C4"/><stop offset="1" stop-color="#7DC243"/></linearGradient></defs></svg>