<svg width="40" height="36" viewBox="0 0 40 36" fill="none" xmlns="http://www.w3.org/2000/svg"><path d="M37.9488.3467H25.4774c-1.1322 0-2.0512.919-2.0512 2.0512v12.4713c0 1.1323.919 2.0512 2.0512 2.0512h5.9691c-.078 3.2656-.8369 5.8788-2.2728 7.8438-1.1322 1.5507-2.847 2.8348-5.1403 3.8481-1.0543.4636-1.5097 1.7107-1.0174 2.7528l1.4769 3.1178c.4758 1.0009 1.6532 1.4399 2.6706 1.0009 2.7158-1.1732 5.0091-2.6583 6.8798-4.4634 2.281-2.203 3.844-4.689 4.6891-7.4623C39.5775 20.7849 40 17.0025 40 12.2027V2.3979c0-1.1322-.919-2.0512-2.0512-2.0512zM4.35 35.4756c2.683-1.1692 4.964-2.6542 6.8469-4.4552 2.3015-2.203 3.8727-4.6808 4.7178-7.4336.8451-2.7527 1.2676-6.5474 1.2676-11.3841V2.3979c0-1.1323-.9189-2.0512-2.0512-2.0512H2.6598c-1.1323 0-2.0512.919-2.0512 2.0512v12.4713c0 1.1323.919 2.0512 2.0512 2.0512h5.969c-.078 3.2656-.8369 5.8788-2.2727 7.8438-1.1323 1.5507-2.8471 2.8348-5.1404 3.8481C.1614 29.0759-.294 30.323.1983 31.3651l1.4728 3.1096c.476 1.0009 1.6615 1.444 2.679 1.0009z" fill="#CBE7B4"/></svg>